<?xml version="1.0" encoding="UTF-8"?>
<svg version="1.1" xmlns="http://www.w3.org/2000/svg" width="50" height="50">
<path d="M0 0 C4.28837741 0.50230994 6.25890929 1.73578646 9.25 4.8125 C9.93578125 5.49957031 10.6215625 6.18664062 11.328125 6.89453125 C13.06181652 9.07784838 13.91257485 10.21332344 14 13 C12.671875 15.03515625 12.671875 15.03515625 10.75 17.0625 C10.12609375 17.73410156 9.5021875 18.40570312 8.859375 19.09765625 C8.24578125 19.72542969 7.6321875 20.35320313 7 21 C6.51015625 21.57621094 6.0203125 22.15242188 5.515625 22.74609375 C4 24 4 24 0 24 C0.58210456 19.80884715 1.28156562 18.62457917 4 15 C-8.54 14.67 -21.08 14.34 -34 14 C-34 12.68 -34 11.36 -34 10 C-21.46 9.67 -8.92 9.34 4 9 C2.68 7.35 1.36 5.7 0 4 C0 2.68 0 1.36 0 0 Z " fill="#000000" transform="translate(35,13)"/>
</svg>
