<?xml version="1.0" encoding="UTF-8"?>
<svg version="1.1" xmlns="http://www.w3.org/2000/svg" width="100" height="100">
<path d="M0 0 C3.31301121 1.72021736 5.41950434 3.0913981 7.4375 6.25 C8 9 8 9 7.25 12.75 C6.81662423 15.41920079 6.72325897 16.54936089 8.15625 18.8828125 C8.6821875 19.54023438 9.208125 20.19765625 9.75 20.875 C13.92307987 26.49038858 14.34811826 32.32756103 15.2734375 39.07421875 C16.08543726 44.9771966 17.42055513 50.75366942 18.81884766 56.54248047 C19.88951761 61.27375356 20.76266266 65.34233127 19 70 C12.27141378 75.54312423 4.47455783 75.77304181 -3.875 75.625 C-4.98875 75.64433594 -6.1025 75.66367188 -7.25 75.68359375 C-8.31992187 75.67714844 -9.38984375 75.67070313 -10.4921875 75.6640625 C-11.45495605 75.65842285 -12.41772461 75.6527832 -13.40966797 75.64697266 C-16 75 -16 75 -18.31103516 73.04785156 C-20.65120654 68.82485365 -20.57545948 65.32563565 -20.53125 60.5703125 C-20.5350769 59.66175507 -20.53890381 58.75319763 -20.54284668 57.81710815 C-20.54556303 55.8990569 -20.53822124 53.98096843 -20.52148438 52.06298828 C-20.50011995 49.1414025 -20.52126933 46.22228958 -20.546875 43.30078125 C-20.5442307 41.43228628 -20.53910362 39.56379284 -20.53125 37.6953125 C-20.53934692 36.82842804 -20.54744385 35.96154358 -20.55578613 35.06838989 C-20.4660447 29.20215304 -19.29564669 25.86378657 -16 21 C-14.94712186 19.36622358 -13.9272999 17.70818403 -13 16 C-13.33 15.34 -13.66 14.68 -14 14 C-14.04227317 9.62049912 -13.78687799 6.04917065 -11.125 2.5 C-7.47495408 -0.076503 -4.37240861 -0.42866751 0 0 Z M-11 6 C-11.97350778 9.6365731 -11.97350778 9.6365731 -12 13 C-11.01 13.495 -11.01 13.495 -10 14 C-9.29875 13.154375 -8.5975 12.30875 -7.875 11.4375 C-5 9 -5 9 -1.9375 8.9375 C1.28539046 10.10322634 2.81671568 11.39685331 5 14 C6.26070809 11.0201445 5.99119908 9.97683969 4.8125 6.875 C2.97357664 3.95808708 2.23382274 2.97994628 -1 2 C-5.82403959 2 -7.38889667 2.87037711 -11 6 Z M-4 11 C-6.0624994 12.81222534 -6.0624994 12.81222534 -8 15 C-8 15.99 -8 16.98 -8 18 C-6.2984375 17.9690625 -6.2984375 17.9690625 -4.5625 17.9375 C-1 18 -1 18 0 19 C0.04063832 20.66617115 0.042721 22.33388095 0 24 C-4.75 25 -4.75 25 -7 25 C-7.33 23.35 -7.66 21.7 -8 20 C-10.45483926 20.37944806 -11.71512076 20.70509584 -13.46473694 22.51628113 C-16.91966893 27.92410158 -17.70919057 32.07070434 -17.55859375 38.42578125 C-17.55626236 39.29518845 -17.55393097 40.16459564 -17.55152893 41.06034851 C-17.54184785 42.88318812 -17.5201922 44.70600025 -17.48706055 46.52856445 C-17.43732681 49.32222829 -17.42555557 52.11413487 -17.41992188 54.90820312 C-17.40584648 56.68491463 -17.38964589 58.46161085 -17.37109375 60.23828125 C-17.36573105 61.07265213 -17.36036835 61.90702301 -17.35484314 62.76667786 C-17.2743402 66.66801492 -17.21081525 68.68377712 -15 72 C-12.61390445 72.44922892 -12.61390445 72.44922892 -9.84375 72.36328125 C-8.82152344 72.36263672 -7.79929687 72.36199219 -6.74609375 72.36132812 C-5.13927734 72.3371582 -5.13927734 72.3371582 -3.5 72.3125 C-2.42878906 72.31572266 -1.35757813 72.31894531 -0.25390625 72.32226562 C5.43185847 72.67080128 5.43185847 72.67080128 10 70 C10.57658463 64.09256199 10.62816376 58.17945094 10.70019531 52.24658203 C10.73304939 50.26986153 10.78727769 48.29336531 10.86425781 46.31787109 C11.34259516 33.96636883 10.79105564 25.12781411 2.55175781 15.47558594 C0.36729437 13.35633036 -1.19229473 12.07560488 -4 11 Z M-6 21 C-5.01 22.485 -5.01 22.485 -4 24 C-3.01 23.67 -2.02 23.34 -1 23 C-1 22.34 -1 21.68 -1 21 C-2.65 21 -4.3 21 -6 21 Z M13 49 C13 55.6 13 62.2 13 69 C14.32 68.34 15.64 67.68 17 67 C16.6889315 64.93728361 16.37608484 62.87483534 16.0625 60.8125 C15.80146484 59.08966797 15.80146484 59.08966797 15.53515625 57.33203125 C15.08620687 54.53674788 14.57917838 51.77066414 14 49 C13.67 49 13.34 49 13 49 Z " fill="#008B8B" transform="translate(52,11)"/>
<path d="M0 0 C7.26 0 14.52 0 22 0 C22 7.92 22 15.84 22 24 C14.74 24 7.48 24 0 24 C0 16.08 0 8.16 0 0 Z M2 2 C2 8.6 2 15.2 2 22 C7.94 22 13.88 22 20 22 C20 15.4 20 8.8 20 2 C14.06 2 8.12 2 2 2 Z " fill="#008A8A" transform="translate(37,53)"/>
<path d="M0 0 C5.28 0 10.56 0 16 0 C16 0.66 16 1.32 16 2 C10.72 2 5.44 2 0 2 C0 1.34 0 0.68 0 0 Z " fill="#008A8A" transform="translate(40,70)"/>
<path d="M0 0 C5.28 0 10.56 0 16 0 C16 0.66 16 1.32 16 2 C10.72 2 5.44 2 0 2 C0 1.34 0 0.68 0 0 Z " fill="#008A8A" transform="translate(40,66)"/>
<path d="M0 0 C5.28 0 10.56 0 16 0 C16 0.66 16 1.32 16 2 C10.72 2 5.44 2 0 2 C0 1.34 0 0.68 0 0 Z " fill="#008A8A" transform="translate(40,62)"/>
<path d="M0 0 C5.28 0 10.56 0 16 0 C16 0.66 16 1.32 16 2 C10.72 2 5.44 2 0 2 C0 1.34 0 0.68 0 0 Z " fill="#008A8A" transform="translate(40,58)"/>
</svg>
